<svg width="55" height="37" viewBox="0 0 55 37" fill="none" xmlns="http://www.w3.org/2000/svg">
<path d="M17.2885 16.5165C17.2885 25.5729 25.5033 32.933 35.6609 32.933C45.8185 32.933 54.0333 25.5729 54.0333 16.5165C54.0333 7.46015 45.8185 0.1 35.6609 0.1C25.5033 0.1 17.2885 7.46015 17.2885 16.5165Z" fill="#B0E212"/>
<path d="M17.2885 16.5165C17.2885 25.5729 25.5033 32.933 35.6609 32.933C45.8185 32.933 54.0333 25.5729 54.0333 16.5165C54.0333 7.46015 45.8185 0.1 35.6609 0.1C25.5033 0.1 17.2885 7.46015 17.2885 16.5165Z" fill="#B0E212"/>
<path d="M17.2885 16.5165C17.2885 25.5729 25.5033 32.933 35.6609 32.933C45.8185 32.933 54.0333 25.5729 54.0333 16.5165C54.0333 7.46015 45.8185 0.1 35.6609 0.1C25.5033 0.1 17.2885 7.46015 17.2885 16.5165Z" fill="#B0E212"/>
<path d="M17.2885 16.5165C17.2885 25.5729 25.5033 32.933 35.6609 32.933C45.8185 32.933 54.0333 25.5729 54.0333 16.5165C54.0333 7.46015 45.8185 0.1 35.6609 0.1C25.5033 0.1 17.2885 7.46015 17.2885 16.5165Z" fill="#171816"/>
<path d="M17.2885 16.5165C17.2885 25.5729 25.5033 32.933 35.6609 32.933C45.8185 32.933 54.0333 25.5729 54.0333 16.5165C54.0333 7.46015 45.8185 0.1 35.6609 0.1C25.5033 0.1 17.2885 7.46015 17.2885 16.5165Z" stroke="#F5F1F1" stroke-width="0.2"/>
<path d="M0.149904 26.8166C0.149904 32.3184 4.91536 36.7949 10.8149 36.7949C16.7144 36.7949 21.4799 32.3184 21.4799 26.8166C21.4799 21.3149 16.7144 16.8383 10.8149 16.8383C4.91536 16.8383 0.149904 21.3149 0.149904 26.8166Z" fill="#B0E212"/>
<path d="M0.149904 26.8166C0.149904 32.3184 4.91536 36.7949 10.8149 36.7949C16.7144 36.7949 21.4799 32.3184 21.4799 26.8166C21.4799 21.3149 16.7144 16.8383 10.8149 16.8383C4.91536 16.8383 0.149904 21.3149 0.149904 26.8166Z" fill="#B0E212"/>
<path d="M0.149904 26.8166C0.149904 32.3184 4.91536 36.7949 10.8149 36.7949C16.7144 36.7949 21.4799 32.3184 21.4799 26.8166C21.4799 21.3149 16.7144 16.8383 10.8149 16.8383C4.91536 16.8383 0.149904 21.3149 0.149904 26.8166Z" fill="#B0E212"/>
<path d="M0.149904 26.8166C0.149904 32.3184 4.91536 36.7949 10.8149 36.7949C16.7144 36.7949 21.4799 32.3184 21.4799 26.8166C21.4799 21.3149 16.7144 16.8383 10.8149 16.8383C4.91536 16.8383 0.149904 21.3149 0.149904 26.8166Z" fill="#1C1C1A"/>
<path d="M0.149904 26.8166C0.149904 32.3184 4.91536 36.7949 10.8149 36.7949C16.7144 36.7949 21.4799 32.3184 21.4799 26.8166C21.4799 21.3149 16.7144 16.8383 10.8149 16.8383C4.91536 16.8383 0.149904 21.3149 0.149904 26.8166Z" stroke="#DFD8D8" stroke-width="0.3"/>
<ellipse cx="15.8645" cy="15.2126" rx="15.8645" ry="15.2126" transform="matrix(-1 0 0 1 50.2217 2.60791)" fill="#FFFEFE"/>
<ellipse cx="10.3" cy="9.09832" rx="10.3" ry="9.09832" transform="matrix(-1 0 0 1 21.6299 18.7481)" fill="#FFFEFE"/>
<ellipse cx="2.49963" cy="2.2219" rx="2.49963" ry="2.2219" transform="matrix(0.150442 0.988619 0.988619 -0.150442 25.667 21.4421)" fill="black"/>
<ellipse cx="2.49963" cy="2.2219" rx="2.49963" ry="2.2219" transform="matrix(0.150442 0.988619 0.988619 -0.150442 25.667 21.4421)" fill="#0F0F0E"/>
<ellipse cx="2.49963" cy="2.2219" rx="2.49963" ry="2.2219" transform="matrix(0.150442 0.988619 0.988619 -0.150442 25.667 21.4421)" fill="#151515"/>
<ellipse cx="2.49963" cy="2.2219" rx="2.49963" ry="2.2219" transform="matrix(0.150442 0.988619 0.988619 -0.150442 25.667 21.4421)" fill="#111111"/>
<ellipse cx="2.49963" cy="2.2219" rx="2.49963" ry="2.2219" transform="matrix(0.150442 0.988619 0.988619 -0.150442 14.0811 24.2235)" fill="black"/>
<ellipse cx="2.49963" cy="2.2219" rx="2.49963" ry="2.2219" transform="matrix(0.150442 0.988619 0.988619 -0.150442 14.0811 24.2235)" fill="#0F0F0E"/>
<ellipse cx="2.49963" cy="2.2219" rx="2.49963" ry="2.2219" transform="matrix(0.150442 0.988619 0.988619 -0.150442 14.0811 24.2235)" fill="#151515"/>
<ellipse cx="2.49963" cy="2.2219" rx="2.49963" ry="2.2219" transform="matrix(0.150442 0.988619 0.988619 -0.150442 14.0811 24.2235)" fill="#111111"/>
<ellipse cx="0.742225" cy="0.810588" rx="0.742225" ry="0.810588" transform="matrix(0.150442 0.988619 0.988619 -0.150442 28.2734 22.0872)" fill="#FFFEFE"/>
<ellipse cx="0.742225" cy="0.810588" rx="0.742225" ry="0.810588" transform="matrix(0.150442 0.988619 0.988619 -0.150442 16.6875 24.8687)" fill="#FFFEFE"/>
</svg>
